<svg width="19" height="19" viewBox="0 0 19 19" fill="none" xmlns="http://www.w3.org/2000/svg">
<mask id="mask0_58_375" style="mask-type:alpha" maskUnits="userSpaceOnUse" x="0" y="0" width="19" height="19">
<rect width="19" height="19" fill="#D9D9D9"/>
</mask>
<g mask="url(#mask0_58_375)">
<path d="M11.0833 15.8333V15.3781C11.0833 15.0615 11.1691 14.7712 11.3406 14.5073C11.5122 14.2434 11.7497 14.0455 12.0531 13.9135C12.4226 13.7684 12.7821 13.6563 13.1318 13.5771C13.4814 13.4979 13.874 13.4583 14.3094 13.4583C14.692 13.4583 15.0681 13.4979 15.4375 13.5771C15.8069 13.6563 16.1434 13.7684 16.4469 13.9135C16.7503 14.0455 16.9878 14.2434 17.1594 14.5073C17.3309 14.7712 17.4167 15.0615 17.4167 15.3781V15.8333H11.0833ZM14.25 12.6667C13.8146 12.6667 13.4418 12.5116 13.1318 12.2016C12.8217 11.8915 12.6667 11.5188 12.6667 11.0833C12.6667 10.6479 12.8217 10.2752 13.1318 9.9651C13.4418 9.65504 13.8146 9.5 14.25 9.5C14.6854 9.5 15.0582 9.65504 15.3682 9.9651C15.6783 10.2752 15.8333 10.6479 15.8333 11.0833C15.8333 11.5188 15.6783 11.8915 15.3682 12.2016C15.0582 12.5116 14.6854 12.6667 14.25 12.6667ZM3.95833 16.625C3.52292 16.625 3.15017 16.47 2.8401 16.1599C2.53003 15.8498 2.375 15.4771 2.375 15.0417V3.95833C2.375 3.52292 2.53003 3.15017 2.8401 2.8401C3.15017 2.53003 3.52292 2.375 3.95833 2.375H15.0417C15.4771 2.375 15.8498 2.53003 16.1599 2.8401C16.47 3.15017 16.625 3.52292 16.625 3.95833V8.43125C16.3743 8.3125 16.117 8.21684 15.8531 8.14427C15.5892 8.0717 15.3188 8.01563 15.0417 7.97604V3.95833H3.95833V11.0833H7.28333C7.40208 11.4396 7.6 11.7497 7.87708 12.0135C8.15417 12.2774 8.46424 12.4622 8.80729 12.5677C8.76771 12.8316 8.74132 13.0988 8.72813 13.3693C8.71493 13.6398 8.72813 13.9069 8.76771 14.1708C8.29271 14.0785 7.8474 13.9036 7.43177 13.6464C7.01615 13.3891 6.65 13.0625 6.33333 12.6667H3.95833V15.0417H8.96562C9.05799 15.3319 9.16354 15.609 9.28229 15.8729C9.40104 16.1368 9.54618 16.3875 9.71771 16.625H3.95833ZM5.54167 6.92708H13.4583V5.34375H5.54167V6.92708ZM5.54167 9.69792H10.2323C10.5885 9.31528 10.9877 8.99201 11.4297 8.72813C11.8717 8.46424 12.35 8.25972 12.8646 8.11458H5.54167V9.69792Z" fill="#43A046"/>
</g>
</svg>
