<svg width="6" height="6" viewBox="0 0 6 6" fill="none" xmlns="http://www.w3.org/2000/svg">
<path d="M5.25 1.5H4.5C4.5 1.10218 4.34196 0.720644 4.06066 0.43934C3.77936 0.158035 3.39782 0 3 0C2.60218 0 2.22064 0.158035 1.93934 0.43934C1.65804 0.720644 1.5 1.10218 1.5 1.5H0.75C0.551088 1.5 0.360322 1.57902 0.21967 1.71967C0.0790176 1.86032 0 2.05109 0 2.25L0 4.75C0.000396964 5.0814 0.13222 5.39911 0.366555 5.63345C0.600889 5.86778 0.918601 5.9996 1.25 6H4.75C5.0814 5.9996 5.39911 5.86778 5.63345 5.63345C5.86778 5.39911 5.9996 5.0814 6 4.75V2.25C6 2.05109 5.92098 1.86032 5.78033 1.71967C5.63968 1.57902 5.44891 1.5 5.25 1.5ZM3 0.5C3.26522 0.5 3.51957 0.605357 3.70711 0.792893C3.89464 0.98043 4 1.23478 4 1.5H2C2 1.23478 2.10536 0.98043 2.29289 0.792893C2.48043 0.605357 2.73478 0.5 3 0.5ZM5.5 4.75C5.5 4.94891 5.42098 5.13968 5.28033 5.28033C5.13968 5.42098 4.94891 5.5 4.75 5.5H1.25C1.05109 5.5 0.860322 5.42098 0.71967 5.28033C0.579018 5.13968 0.5 4.94891 0.5 4.75V2.25C0.5 2.1837 0.526339 2.12011 0.573223 2.07322C0.620107 2.02634 0.683696 2 0.75 2H1.5V2.5C1.5 2.5663 1.52634 2.62989 1.57322 2.67678C1.62011 2.72366 1.6837 2.75 1.75 2.75C1.8163 2.75 1.87989 2.72366 1.92678 2.67678C1.97366 2.62989 2 2.5663 2 2.5V2H4V2.5C4 2.5663 4.02634 2.62989 4.07322 2.67678C4.12011 2.72366 4.1837 2.75 4.25 2.75C4.3163 2.75 4.37989 2.72366 4.42678 2.67678C4.47366 2.62989 4.5 2.5663 4.5 2.5V2H5.25C5.3163 2 5.37989 2.02634 5.42678 2.07322C5.47366 2.12011 5.5 2.1837 5.5 2.25V4.75Z" fill="white"/>
</svg>
