<svg width="61" height="60" viewBox="0 0 61 60" fill="none" xmlns="http://www.w3.org/2000/svg">
<path fill-rule="evenodd" clip-rule="evenodd" d="M52.1583 17.8L51.8083 17.175C51.3568 16.4192 50.72 15.7911 49.9583 15.35L33.1833 5.675C32.4238 5.23437 31.5616 5.00155 30.6833 5H29.9583C29.0801 5.00155 28.2178 5.23437 27.4583 5.675L10.6833 15.375C9.92574 15.8131 9.29646 16.4424 8.85831 17.2L8.50831 17.825C8.06769 18.5846 7.83486 19.4468 7.83331 20.325V39.7C7.83486 40.5782 8.06769 41.4405 8.50831 42.2L8.85831 42.825C9.30779 43.5737 9.93454 44.2005 10.6833 44.65L27.4833 54.325C28.2391 54.7747 29.1038 55.0082 29.9833 55H30.6833C31.5616 54.9985 32.4238 54.7657 33.1833 54.325L49.9583 44.625C50.7233 44.1967 51.355 43.565 51.7833 42.8L52.1583 42.175C52.5935 41.4132 52.826 40.5525 52.8333 39.675V20.3C52.8318 19.4218 52.599 18.5596 52.1583 17.8ZM29.9583 10H30.6833L45.3333 18.45L30.3333 27.1L15.3333 18.45L29.9583 10ZM32.8333 48.75L47.4583 40.3L47.8333 39.675V22.775L32.8333 31.45V48.75Z" fill="#111111"/>
</svg>
