<svg width="19" height="20" viewBox="0 0 19 20" fill="none" xmlns="http://www.w3.org/2000/svg">
<mask id="mask0_61_484" style="mask-type:alpha" maskUnits="userSpaceOnUse" x="0" y="0" width="19" height="20">
<rect y="0.546143" width="18.9077" height="18.9077" rx="4" fill="#D9D9D9"/>
</mask>
<g mask="url(#mask0_61_484)">
<path d="M15.9927 16.5389C15.6882 16.8435 15.1944 16.8435 14.8898 16.5389L11.5801 13.2292C10.9526 12.6018 9.95411 12.5758 9.11899 12.8755C8.6069 13.0594 8.06199 13.1513 7.48426 13.1513C6.05305 13.1513 4.84177 12.6556 3.85043 11.6643C2.85909 10.6729 2.36342 9.46166 2.36342 8.03045C2.36342 6.59924 2.85909 5.38796 3.85043 4.39662C4.84177 3.40528 6.05305 2.90961 7.48426 2.90961C8.91547 2.90961 10.1267 3.40528 11.1181 4.39662C12.1094 5.38796 12.6051 6.59924 12.6051 8.03045C12.6051 8.60818 12.5132 9.15309 12.3294 9.66518C12.0296 10.5003 12.0556 11.4988 12.683 12.1262L15.9927 15.436C16.2973 15.7405 16.2973 16.2343 15.9927 16.5389ZM7.48426 11.5756C8.46904 11.5756 9.3061 11.231 9.99544 10.5416C10.6848 9.85228 11.0295 9.01522 11.0295 8.03045C11.0295 7.04567 10.6848 6.20861 9.99544 5.51927C9.3061 4.82992 8.46904 4.48525 7.48426 4.48525C6.49948 4.48525 5.66242 4.82992 4.97308 5.51927C4.28373 6.20861 3.93906 7.04567 3.93906 8.03045C3.93906 9.01522 4.28373 9.85228 4.97308 10.5416C5.66242 11.231 6.49948 11.5756 7.48426 11.5756Z" fill="#43A046"/>
</g>
</svg>
